mtllib box2.mtl
v 3.46875 2.437499523 -1
vn 0.2175311744 0.619127214 -0.7545605898
v -3.46875 2.437499523 -1
vn -0.2717781365 0.1933806837 -0.9427303672
v -3.46875 2.437499523 1
vn -0.1321873218 0.3762257993 0.9170499444
v 3.46875 2.437497139 1
vn 0.4706548154 0.3348889053 0.8162925243
v -3.46875 -2.437498093 1
vn -0.4706552625 -0.3348892331 0.8162921071
v -3.46875 -2.437498093 -1
vn -0.217531085 -0.6191267967 -0.7545609474
v 3.468746424 -2.437500477 1
vn 0.1321873367 -0.3762258887 0.9170499444
v 3.46875 -2.437498093 -1
vn 0.2717781067 -0.193380788 -0.9427303672
vt 0 0
vt 0 0
vt 0 0
vt 0 0
vt 0 0
vt 0 0
vt 0 0
vt 0 0
# mm_gid 0
g mmGroup0
usemtl Material.001
f 1/1/1 2/2/2 3/3/3 
f 1/1/1 3/3/3 4/4/4 
f 5/5/5 3/3/3 2/2/2 
f 5/5/5 2/2/2 6/6/6 
f 7/7/7 5/5/5 6/6/6 
f 7/7/7 6/6/6 8/8/8 
f 4/4/4 7/7/7 8/8/8 
f 8/8/8 1/1/1 4/4/4 
f 3/3/3 5/5/5 7/7/7 
f 3/3/3 7/7/7 4/4/4 
f 8/8/8 6/6/6 2/2/2 
f 2/2/2 1/1/1 8/8/8 
